<svg xmlns="http://www.w3.org/2000/svg" viewBox="0 0 512 512" width="512" height="512"
     data-name="Ninja Kid" data-crop="96 120 320 380"
     data-counter-x="256" data-counter-y="420" data-counter-fill="#fff3d6" data-counter-stroke="#5a2d0c">
  <!-- Original chibi homage to a spiky-haired orange ninja. -->
  <style>
    .pose-down, .mouth-open { display: none; }
    .tap-left  #handL .pose-up, .tap-right #handR .pose-up { display: none; }
    .tap-left  #handL .pose-down, .tap-right #handR .pose-down { display: inline; }
    .tap-left .mouth-closed, .tap-right .mouth-closed { display: none; }
    .tap-left .mouth-open, .tap-right .mouth-open { display: inline; }
    .chroma #bg, .chroma #holyGlow { display: none; }
  </style>
  <defs>
    <radialGradient id="sky" cx="50%" cy="40%" r="75%"><stop offset="0%" stop-color="#ff9a5a"/><stop offset="60%" stop-color="#c2410c"/><stop offset="100%" stop-color="#431407"/></radialGradient>
    <radialGradient id="glow" cx="50%" cy="50%" r="50%"><stop offset="0%" stop-color="#fff1c2" stop-opacity="0.85"/><stop offset="45%" stop-color="#ff8a1f" stop-opacity="0.4"/><stop offset="100%" stop-color="#ff8a1f" stop-opacity="0"/></radialGradient>
    <radialGradient id="skin" cx="45%" cy="40%" r="65%"><stop offset="0%" stop-color="#fff3e8"/><stop offset="75%" stop-color="#ffe2cf"/><stop offset="100%" stop-color="#f7cbb2"/></radialGradient>
    <linearGradient id="iris" x1="0" y1="0" x2="0" y2="1"><stop offset="0%" stop-color="#0b3a7a"/><stop offset="55%" stop-color="#1f6fd1"/><stop offset="100%" stop-color="#8ec5ff"/></linearGradient>
    <linearGradient id="hair" x1="0" y1="0" x2="0" y2="1"><stop offset="0%" stop-color="#ffe066"/><stop offset="100%" stop-color="#f4b400"/></linearGradient>
    <filter id="soft" x="-50%" y="-50%" width="200%" height="200%"><feGaussianBlur stdDeviation="4"/></filter>
    <g id="sparkle"><path d="M0,-12 C1.5,-3 3,-1.5 12,0 C3,1.5 1.5,3 0,12 C-1.5,3 -3,1.5 -12,0 C-3,-1.5 -1.5,-3 0,-12Z" fill="#fff1c2"/></g>
    <linearGradient id="jacket" x1="0" y1="0" x2="0" y2="1"><stop offset="0%" stop-color="#ff9a3c"/><stop offset="100%" stop-color="#e8700a"/></linearGradient><linearGradient id="counterWood" x1="0" y1="0" x2="0" y2="1"><stop offset="0%" stop-color="#d9a066"/><stop offset="100%" stop-color="#a8692f"/></linearGradient>
  </defs>
  <g id="bg">
    <rect id="sky-rect" width="512" height="512" fill="url(#sky)"/>
    <circle cx="60" cy="70" r="1.6" fill="#fff1c2" opacity="0.7"/>
    <circle cx="120" cy="40" r="1.2" fill="#fff1c2" opacity="0.7"/>
    <circle cx="40" cy="180" r="1.4" fill="#fff1c2" opacity="0.7"/>
    <circle cx="470" cy="200" r="1.5" fill="#fff1c2" opacity="0.7"/>
    <circle cx="455" cy="40" r="1.2" fill="#fff1c2" opacity="0.7"/>
    <circle cx="330" cy="50" r="1.3" fill="#fff1c2" opacity="0.7"/>
    <circle cx="90" cy="290" r="1.3" fill="#fff1c2" opacity="0.7"/>
    <circle cx="430" cy="300" r="1.1" fill="#fff1c2" opacity="0.7"/>
  </g>
  <circle id="holyGlow" cx="256" cy="250" r="165" fill="url(#glow)"/>
  <path d="M146,372 C146,326 186,308 226,306 L286,306 C326,308 366,326 366,372Z" fill="url(#jacket)" stroke="#b85c00" stroke-width="2"/>
  <path d="M146,372 C146,326 186,308 226,306 L234,306 C204,316 182,332 176,372Z" fill="#1d1d24"/>
  <path d="M366,372 C366,326 326,308 286,306 L278,306 C308,316 330,332 336,372Z" fill="#1d1d24"/>
  <circle cx="177" cy="262" r="13" fill="#ffd9c0"/><circle cx="335" cy="262" r="13" fill="#ffd9c0"/>
  <circle cx="179" cy="263" r="6" fill="#f5bfa2"/><circle cx="333" cy="263" r="6" fill="#f5bfa2"/>
  <circle cx="256" cy="250" r="80" fill="url(#skin)"/>
  <ellipse cx="204" cy="292" rx="16" ry="9" fill="#ff8fa8" opacity="0.5" filter="url(#soft)"/>
  <ellipse cx="308" cy="292" rx="16" ry="9" fill="#ff8fa8" opacity="0.5" filter="url(#soft)"/>
  <g>
    <ellipse cx="222" cy="266" rx="17" ry="22" fill="#ffffff"/>
    <ellipse cx="222" cy="268" rx="14.5" ry="20" fill="url(#iris)"/>
    <ellipse cx="222" cy="269" rx="6.5" ry="9" fill="#120a08" opacity="0.85"/>
    <circle cx="215" cy="258" r="6.5" fill="#ffffff"/>
    <circle cx="228" cy="277" r="2.8" fill="#ffffff"/>
    <path d="M201,260 Q222,232 243,258" fill="none" stroke="#2a1a14" stroke-width="5.5" stroke-linecap="round"/>
    <path d="M202,260 L192,253 M205,255 L197,247" stroke="#2a1a14" stroke-width="3.5" stroke-linecap="round"/>
  </g>
  <g>
    <ellipse cx="290" cy="266" rx="17" ry="22" fill="#ffffff"/>
    <ellipse cx="290" cy="268" rx="14.5" ry="20" fill="url(#iris)"/>
    <ellipse cx="290" cy="269" rx="6.5" ry="9" fill="#120a08" opacity="0.85"/>
    <circle cx="283" cy="258" r="6.5" fill="#ffffff"/>
    <circle cx="296" cy="277" r="2.8" fill="#ffffff"/>
    <path d="M269,258 Q290,232 311,260" fill="none" stroke="#2a1a14" stroke-width="5.5" stroke-linecap="round"/>
    <path d="M310,260 L320,253 M307,255 L315,247" stroke="#2a1a14" stroke-width="3.5" stroke-linecap="round"/>
  </g>
  <ellipse cx="256" cy="290" rx="2" ry="1.5" fill="#f0a88c"/>
  <g class="mouth-closed"><path d="M246,302 Q256,314 266,302 Q256,306 246,302Z" fill="#d95c78"/></g>
  <g class="mouth-open"><ellipse cx="256" cy="306" rx="8.5" ry="9.5" fill="#b8405e"/><ellipse cx="256" cy="311" rx="5.5" ry="3.5" fill="#ff8fa8"/></g>
  <rect x="190" y="286" width="20" height="9" rx="3" transform="rotate(-18 200 290)" fill="#ffe2bf" stroke="#d9a77a" stroke-width="1.5"/>
  <circle cx="197" cy="291" r="1" fill="#d9a77a"/><circle cx="203" cy="289" r="1" fill="#d9a77a"/>
  <path d="M181.7,270.7 L157.3,261.6 L172.2,242.0 L148.7,224.0 L175.6,211.7 L168.9,191.1 L189.6,184.6 L182.7,154.0 L212.3,164.3 L218.9,138.8 L240.8,153.4 L256.0,124.0 L271.2,153.4 L293.1,138.8 L299.7,164.3 L329.3,154.0 L322.4,184.6 L343.1,191.1 L336.4,211.7 L363.3,224.0 L339.8,242.0 L354.7,261.6 L330.3,270.7 L330.0,270.0 L322.0,236.0 L312.0,214.0 L300.0,240.0 L288.0,210.0 L272.0,238.0 L256.0,212.0 L240.0,238.0 L224.0,210.0 L212.0,240.0 L200.0,214.0 L190.0,236.0 L182.0,270.0Z" fill="url(#hair)" stroke="#c98a00" stroke-width="2.5" stroke-linejoin="round"/>
  <path d="M214,178 C232,168 252,165 272,168" fill="none" stroke="#fff6c2" stroke-width="4" stroke-linecap="round" opacity="0.9"/>
  <path d="M180,220 Q256,190 332,220 L330,204 Q256,174 182,204Z" fill="#1f3a68" stroke="#0f1f3a" stroke-width="2"/>
  <rect x="224" y="186" width="64" height="22" rx="4" fill="#d5dbe1" stroke="#6b7785" stroke-width="2"/>
  <path d="M256,191 a6,6 0 1,1 -6,6 a3.5,3.5 0 1,1 3.5,-3.5" fill="none" stroke="#55606e" stroke-width="2" stroke-linecap="round"/>
  <path d="M224,320 Q256,342 288,320 L294,334 Q256,358 218,334Z" fill="url(#jacket)" stroke="#b85c00" stroke-width="2"/>
  <line x1="256" y1="342" x2="256" y2="372" stroke="#f5f5f5" stroke-width="3"/>
  <rect x="252" y="344" width="8" height="12" rx="2" fill="#f5f5f5" stroke="#9aa1ab" stroke-width="1"/>
  <g stroke="#5a3414" stroke-width="12" stroke-linecap="round"><line x1="140" y1="432" x2="112" y2="492"/><line x1="160" y1="432" x2="188" y2="492"/><line x1="372" y1="432" x2="400" y2="492"/><line x1="352" y1="432" x2="324" y2="492"/></g>
  <rect x="100" y="352" width="312" height="14" rx="3" fill="#8b4513" stroke="#4a2408" stroke-width="2"/>
  <path d="M104,364 L408,364 L400,440 L112,440Z" fill="url(#counterWood)" stroke="#6b3f17" stroke-width="3" stroke-linejoin="round"/>
  <rect x="112" y="374" width="288" height="9" fill="#d62828"/>
  <path d="M150,400 Q180,396 210,401 M290,425 Q320,421 350,426" fill="none" stroke="#f0c48e" stroke-width="1.5" opacity="0.7"/>
  <path d="M222,334 Q224,360 256,360 Q288,360 290,334Z" fill="#e63946" stroke="#8d1b22" stroke-width="2"/>
  <path d="M232,346 Q256,352 280,346" fill="none" stroke="#ffffff" stroke-width="2" opacity="0.8"/>
  <ellipse cx="256" cy="334" rx="34" ry="7" fill="#f6d7a7" stroke="#8d1b22" stroke-width="2"/>
  <circle cx="246" cy="333" r="4" fill="#fff" stroke="#f4a3a8" stroke-width="2"/>
  <line x1="272" y1="332" x2="300" y2="310" stroke="#c98b4b" stroke-width="3" stroke-linecap="round"/>
  <line x1="278" y1="333" x2="306" y2="314" stroke="#c98b4b" stroke-width="3" stroke-linecap="round"/>
  <g id="handL">
    <g class="pose-up">
      <ellipse cx="190" cy="331" rx="31" ry="21" transform="rotate(40 190 331)" fill="url(#jacket)" stroke="#b85c00" stroke-width="2.5"/>
      <path d="M197,322 Q190,331 196,342" fill="none" stroke="#ffb066" stroke-width="2" stroke-linecap="round" opacity="0.8"/>
      <ellipse cx="169" cy="313" rx="8" ry="16" transform="rotate(40 169 313)" fill="#1d1d24" stroke="#000000" stroke-width="2.5"/>
      <circle cx="158" cy="300" r="17" fill="url(#skin)" stroke="#e0a284" stroke-width="2"/>
      <ellipse cx="170" cy="293" rx="6" ry="7.5" transform="rotate(-20 170 293)" fill="#ffe3cf" stroke="#e0a284" stroke-width="2"/>
      <path d="M147,293 Q150,289 154,292 M154,292 Q157,288 161,291" fill="none" stroke="#e0a284" stroke-width="1.8" stroke-linecap="round"/>
      <ellipse cx="153" cy="306" rx="5" ry="3" fill="#ff9fb2" opacity="0.45"/>
      <circle cx="152" cy="295" r="2.2" fill="#ffffff" opacity="0.8"/>
    </g>
    <g class="pose-down">
      <ellipse cx="196" cy="352" rx="27" ry="21" transform="rotate(-42 196 352)" fill="url(#jacket)" stroke="#b85c00" stroke-width="2.5"/>
      <path d="M205,345 Q197,350 197,360" fill="none" stroke="#ffb066" stroke-width="2" stroke-linecap="round" opacity="0.8"/>
      <ellipse cx="183" cy="365" rx="16" ry="7" transform="rotate(-10 183 365)" fill="#1d1d24" stroke="#000000" stroke-width="2.5"/>
      <ellipse cx="179" cy="375" rx="20" ry="13" fill="url(#skin)" stroke="#e0a284" stroke-width="2"/>
      <path d="M166,371 Q169,367 173,370 M173,370 Q176,366 180,369 M180,369 Q183,365 187,368" fill="none" stroke="#e0a284" stroke-width="1.8" stroke-linecap="round"/>
      <ellipse cx="172" cy="379" rx="5" ry="2.5" fill="#ff9fb2" opacity="0.45"/>
      <g stroke="#5a2a00" stroke-width="6.5" stroke-linecap="round"><line x1="146" y1="353" x2="155" y2="361"/><line x1="160" y1="340" x2="164" y2="351"/><line x1="138" y1="372" x2="150" y2="372"/></g>
      <g stroke="#ffe066" stroke-width="3.5" stroke-linecap="round"><line x1="146" y1="353" x2="155" y2="361"/><line x1="160" y1="340" x2="164" y2="351"/><line x1="138" y1="372" x2="150" y2="372"/></g>
    </g>
  </g>
  <g id="handR">
    <g transform="translate(512 0) scale(-1 1)">
    <g class="pose-up">
      <ellipse cx="190" cy="331" rx="31" ry="21" transform="rotate(40 190 331)" fill="url(#jacket)" stroke="#b85c00" stroke-width="2.5"/>
      <path d="M197,322 Q190,331 196,342" fill="none" stroke="#ffb066" stroke-width="2" stroke-linecap="round" opacity="0.8"/>
      <ellipse cx="169" cy="313" rx="8" ry="16" transform="rotate(40 169 313)" fill="#1d1d24" stroke="#000000" stroke-width="2.5"/>
      <circle cx="158" cy="300" r="17" fill="url(#skin)" stroke="#e0a284" stroke-width="2"/>
      <ellipse cx="170" cy="293" rx="6" ry="7.5" transform="rotate(-20 170 293)" fill="#ffe3cf" stroke="#e0a284" stroke-width="2"/>
      <path d="M147,293 Q150,289 154,292 M154,292 Q157,288 161,291" fill="none" stroke="#e0a284" stroke-width="1.8" stroke-linecap="round"/>
      <ellipse cx="153" cy="306" rx="5" ry="3" fill="#ff9fb2" opacity="0.45"/>
      <circle cx="152" cy="295" r="2.2" fill="#ffffff" opacity="0.8"/>
    </g>
    <g class="pose-down">
      <ellipse cx="196" cy="352" rx="27" ry="21" transform="rotate(-42 196 352)" fill="url(#jacket)" stroke="#b85c00" stroke-width="2.5"/>
      <path d="M205,345 Q197,350 197,360" fill="none" stroke="#ffb066" stroke-width="2" stroke-linecap="round" opacity="0.8"/>
      <ellipse cx="183" cy="365" rx="16" ry="7" transform="rotate(-10 183 365)" fill="#1d1d24" stroke="#000000" stroke-width="2.5"/>
      <ellipse cx="179" cy="375" rx="20" ry="13" fill="url(#skin)" stroke="#e0a284" stroke-width="2"/>
      <path d="M166,371 Q169,367 173,370 M173,370 Q176,366 180,369 M180,369 Q183,365 187,368" fill="none" stroke="#e0a284" stroke-width="1.8" stroke-linecap="round"/>
      <ellipse cx="172" cy="379" rx="5" ry="2.5" fill="#ff9fb2" opacity="0.45"/>
      <g stroke="#5a2a00" stroke-width="6.5" stroke-linecap="round"><line x1="146" y1="353" x2="155" y2="361"/><line x1="160" y1="340" x2="164" y2="351"/><line x1="138" y1="372" x2="150" y2="372"/></g>
      <g stroke="#ffe066" stroke-width="3.5" stroke-linecap="round"><line x1="146" y1="353" x2="155" y2="361"/><line x1="160" y1="340" x2="164" y2="351"/><line x1="138" y1="372" x2="150" y2="372"/></g>
    </g>
    </g>
  </g>

  <use href="#sparkle" transform="translate(122 150) scale(0.9)"/>
  <use href="#sparkle" transform="translate(390 230) scale(0.7)"/>
  <use href="#sparkle" transform="translate(372 146) scale(0.5)" opacity="0.8"/>
</svg>
